<svg width="810.01" height="130.44" version="1.1" viewBox="0 0 214.31 34.512" xmlns="http://www.w3.org/2000/svg">
 <g transform="translate(12.663 -111.92)" fill="#282828">
  <path d="m0.90295 138.65q-0.64261 0-0.64261-0.64259v-25.175q0-0.64261 0.64261-0.64261h4.0446q0.64261 0 0.64261 0.64261v10.319q0 0.1512 0.0756 0.189 0.1134 0.0378 0.189-0.0756l8.6185-10.697q0.2646-0.37801 0.79381-0.37801h4.5738q0.2646 0 0.4158 0.11341 0.1512 0.0756 0.1512 0.2646 0 0.15119-0.189 0.4158l-8.2405 10.508q-0.1134 0.1134 0 0.3024l8.7319 14.1q0.1134 0.15121 0.1134 0.34021 0 0.41579-0.52921 0.41579h-4.5738q-0.4914 0-0.756-0.41579l-6.6151-10.735q-0.0378-0.1134-0.15121-0.1134-0.1134 0-0.189 0.1134l-2.3058 2.9484q-0.1134 0.1512-0.1134 0.2646v7.2955q0 0.64259-0.64261 0.64259z"/>
  <path d="m30.606 134.45q2.4948-0.1134 3.8178-1.7388 0.2268-0.2646 0.4914-0.2646 0.22681 0 0.41581 0.189l2.1546 2.079q0.2268 0.2268 0.2268 0.4536 0 0.2646-0.1512 0.4536-1.2474 1.5498-3.213 2.457-1.9278 0.8694-4.2336 0.8694-3.4776 0-5.7834-1.7766-2.268-1.7766-3.0618-4.8762-0.4536-1.6632-0.4536-3.5154 0-2.1924 0.4158-3.7044 0.75601-2.7972 3.024-4.4982 2.3058-1.701 5.4432-1.701 3.7044 0 5.859 2.1924 2.1924 2.1924 2.835 6.1615 0.15121 1.2474 0.22681 2.7594 0 0.64261-0.64261 0.64261h-11.605q-0.22681 0-0.22681 0.2268 0.1134 0.79381 0.26461 1.1718 0.378 1.1718 1.4742 1.8144 1.134 0.6048 2.7216 0.6048zm-0.9828-10.962q-1.2096 0-2.0412 0.6048-0.79381 0.56701-1.0962 1.6254-0.189 0.7182-0.22681 0.945-0.0378 0.22681 0.18901 0.22681h6.426q0.18901 0 0.18901-0.15121 0-0.4158-0.15121-0.8694-0.3402-1.0962-1.1718-1.7388t-2.1168-0.6426z"/>
  <path d="m40.757 146.17q-0.2646 0-0.2646-0.64261v-3.0996q0-0.64261 0.22681-0.64261h0.2268q2.3436 0 3.3264-0.60481 1.0206-0.567 1.4742-2.3814 0.0756-0.189 0-0.3024l-6.0858-18.56q-0.0378-0.0756-0.0378-0.2268 0-0.2268 0.1512-0.3402 0.1512-0.1512 0.4158-0.1512h4.347q0.52921 0 0.71821 0.5292l3.0996 11.264q0.0378 0.1512 0.1512 0.1512 0.11341 0 0.15121-0.1512l2.9484-11.227q0.1134-0.567 0.7182-0.567h4.347q0.3402 0 0.4914 0.2268 0.1512 0.189 0.0378 0.4914l-6.4639 19.429q-0.94501 2.7594-1.9278 4.1202-0.98281 1.3986-2.7594 2.0412-1.7766 0.64261-5.0274 0.64261z"/>
  <path d="m89.652 138.95q-3.213 0-5.481-1.6632t-3.0996-4.536q-0.5292-1.7766-0.5292-3.8556 0-2.3058 0.567-4.0068 0.86941-2.7972 3.0996-4.3848 2.268-1.5876 5.481-1.5876 3.0996 0 5.292 1.5876 2.2302 1.5876 3.0996 4.347 0.567 1.7388 0.567 3.969 0 1.9656-0.4914 3.8178-0.86941 2.9484-3.1374 4.6494-2.2302 1.6632-5.3676 1.6632zm0-4.5738q1.2096 0 2.079-0.756 0.86941-0.75601 1.2474-2.079 0.3024-1.0206 0.3024-2.646 0-1.5876-0.3024-2.6838-0.378-1.2852-1.2474-2.0034-0.86941-0.7182-2.1546-0.7182-1.2474 0-2.1168 0.7182-0.86941 0.71821-1.2474 2.0034-0.3024 1.0962-0.3024 2.6838 0 1.5498 0.3024 2.646 0.378 1.323 1.2474 2.079 0.90721 0.756 2.1924 0.756z"/>
  <path d="m109.86 118.92q2.457 0 4.3848 0.86941 1.9278 0.83161 2.9862 2.3058 1.0962 1.4742 1.0962 3.2886v12.625q0 0.64259-0.64261 0.64259h-4.0446q-0.6426 0-0.6426-0.64259v-0.90721q0-0.1512-0.0756-0.1512-0.0756-0.0378-0.189 0.0756-1.7388 1.9278-5.1786 1.9278-2.9106 0-4.6872-1.4364t-1.7766-4.2336q0-2.9106 2.0412-4.4982 2.0412-1.6254 5.8212-1.6254h3.8178q0.2268 0 0.2268-0.2268v-0.79381q0-1.2474-0.79381-1.9278-0.75601-0.7182-2.2302-0.7182-1.134 0-1.89 0.378-0.7182 0.378-0.9828 1.0584-0.22681 0.5292-0.75601 0.4914l-4.1958-0.5292q-0.3024-0.0378-0.4914-0.1512-0.1512-0.1512-0.1134-0.37801 0.189-1.5498 1.2852-2.7972 1.134-1.2474 2.9484-1.9278 1.8522-0.71821 4.0824-0.71821zm-0.75601 16.065q1.6254 0 2.7594-0.86941t1.134-2.2302v-1.323q0-0.2268-0.2268-0.2268h-2.6838q-1.701 0-2.6838 0.6426-0.98281 0.64261-0.98281 1.8144 0 1.0206 0.71821 1.6254 0.756 0.56701 1.9656 0.56701z"/>
  <path d="m131.69 118.95q1.2096 0 2.0034 0.4536 0.45361 0.2268 0.34021 0.79381l-0.71821 3.969q-0.0378 0.3402-0.2268 0.41581-0.1512 0.0756-0.52921 0-0.6048-0.15121-1.0962-0.15121-0.2646 0-0.8694 0.0756-1.3608 0.11341-2.3058 1.0206-0.94501 0.86941-0.94501 2.3436v10.13q0 0.64259-0.64261 0.64259h-4.0446q-0.64261 0-0.64261-0.64259v-18.144q0-0.6426 0.64261-0.6426h4.0446q0.64261 0 0.64261 0.6426v1.1718q0 0.15121 0.0756 0.18901t0.189-0.0756q1.512-2.1924 4.0824-2.1924z"/>
  <path d="m165.44 138.91q-2.5326 0-4.4226-0.7182-1.89-0.71821-2.9106-2.0034t-1.0206-2.9106v-0.189q0-0.6426 0.64261-0.6426h3.8178q0.64261 0 0.64261 0.2268v0.2646q0 0.83161 0.90721 1.4364 0.90721 0.56701 2.3058 0.56701 1.2852 0 2.079-0.49141 0.7938-0.4914 0.7938-1.2852 0-0.6804-0.6804-1.0206-0.68041-0.3402-2.2302-0.7182-1.8522-0.49141-2.7594-0.86941-2.457-0.83161-3.8934-2.0412t-1.4364-3.4776q0-2.7972 2.1924-4.4226 2.1924-1.6632 5.7457-1.6632 2.4192 0 4.2336 0.7938 1.8522 0.75601 2.835 2.1546 1.0206 1.3986 1.0206 3.1752 0 0.189-0.189 0.3402-0.1512 0.1134-0.45361 0.1134h-3.7044q-0.64261 0-0.64261-0.2268v-0.2268q0-0.83161-0.8316-1.3986-0.83161-0.56701-2.2302-0.56701-1.2474 0-2.079 0.45361-0.79381 0.4536-0.79381 1.2474 0 0.756 0.75601 1.134 0.7938 0.378 2.5704 0.7938 1.0962 0.22681 2.1168 0.56701 2.7216 0.79381 4.2714 2.0412 1.5498 1.2474 1.5498 3.6288 0 2.7972-2.2302 4.3848-2.2302 1.5498-5.9724 1.5498z"/>
 </g>
 <g>
  <g transform="matrix(1.006 0 0 .994 12.663 -111.92)" fill="#268bd2" stroke-width=".23542" aria-label="com">
   <path d="m179.32 139.75q-1.0442 0-1.8143-0.52211-0.75706-0.52211-1.0834-1.4358-0.2219-0.65264-0.2219-1.5402 0-0.87454 0.2219-1.5141 0.31327-0.88759 1.0834-1.3966 0.77012-0.50906 1.8143-0.50906t1.8274 0.52211q0.79622 0.52211 1.0573 1.3183 0.0783 0.18274 0.10442 0.40464v0.0261q0 0.16969-0.19579 0.20885l-1.3705 0.20884-0.0653 0.013q-0.15664 0-0.18274-0.15663l-0.0392-0.18274q-0.0914-0.33937-0.40464-0.56127-0.31326-0.2219-0.744-0.2219-0.41769 0-0.70485 0.20885-0.28717 0.20884-0.40464 0.57432-0.14358 0.39158-0.14358 1.0703 0 0.67874 0.13053 1.0703 0.11747 0.39158 0.40463 0.61348 0.30022 0.22189 0.71791 0.22189 0.40463 0 0.70485-0.20884 0.31326-0.2219 0.43074-0.58738l0.013-0.0653q0.0131-0.0522 0.0914-0.11747 0.0783-0.0783 0.16969-0.0653l1.3705 0.20885q0.10442 0.0261 0.14358 0.0914 0.0522 0.0653 0.0392 0.15663-0.0261 0.20884-0.0653 0.30021-0.27411 0.87454-1.0703 1.3705-0.78316 0.49601-1.8143 0.49601z"/>
   <path d="m186.28 139.75q-1.1095 0-1.8926-0.57432t-1.0703-1.5663q-0.18274-0.61348-0.18274-1.3314 0-0.79622 0.19579-1.3836 0.30022-0.96591 1.0703-1.5141 0.78317-0.54821 1.8926-0.54821 1.0703 0 1.8274 0.54821 0.77012 0.54822 1.0703 1.5011 0.19579 0.60043 0.19579 1.3706 0 0.67874-0.16968 1.3183-0.30022 1.0181-1.0834 1.6055-0.77012 0.57432-1.8535 0.57432zm0-1.5794q0.41769 0 0.7179-0.26105 0.30022-0.26106 0.43075-0.7179 0.10442-0.35243 0.10442-0.9137 0-0.54822-0.10442-0.92675-0.13053-0.44379-0.43075-0.69179-0.30021-0.24801-0.744-0.24801-0.43075 0-0.73096 0.24801-0.30021 0.248-0.43074 0.69179-0.10442 0.37853-0.10442 0.92675 0 0.53517 0.10442 0.9137 0.13053 0.45684 0.43074 0.7179 0.31327 0.26105 0.75706 0.26105z"/>
   <path d="m198.01 132.83q1.0181 0 1.5924 0.61348t0.57432 1.723v4.2552q0 0.2219-0.2219 0.2219h-1.3966q-0.2219 0-0.2219-0.2219v-3.8506q0-0.53516-0.27411-0.84843t-0.73096-0.31327q-0.45684 0-0.744 0.31327-0.28717 0.31327-0.28717 0.83538v3.8636q0 0.2219-0.22189 0.2219h-1.3836q-0.22189 0-0.22189-0.2219v-3.8506q0-0.52211-0.28717-0.83538-0.28716-0.32632-0.744-0.32632-0.41769 0-0.70485 0.24801-0.27411 0.248-0.32632 0.69179v4.0725q0 0.2219-0.2219 0.2219h-1.3966q-0.22189 0-0.22189-0.2219v-6.2653q0-0.2219 0.22189-0.2219h1.3966q0.2219 0 0.2219 0.2219v0.41769q0 0.0522 0.0261 0.0653 0.0392 0.013 0.0653-0.0392 0.53516-0.77011 1.6446-0.77011 0.65264 0 1.1356 0.27411 0.48295 0.26105 0.74401 0.77011 0.013 0.0522 0.0391 0.0522 0.0392-0.013 0.0653-0.0522 0.30021-0.52211 0.78317-0.78317 0.48295-0.26105 1.0964-0.26105z"/>
  </g>
  <circle cx="187.64" cy="25.7" r="1.1787" fill="#268bd2" style="paint-order:normal"/>
  <g transform="matrix(0 -.98976 1.0103 0 12.663 -111.92)" fill="#ff4b00" stroke-width=".24516" aria-label="PNW">
   <path d="m-136.24-12.271q0.86295 0 1.5167 0.35302t1.0068 1.0068q0.3661 0.64067 0.3661 1.4775 0 0.82372-0.37917 1.4513-0.3661 0.6276-1.046 0.98062-0.66683 0.33995-1.5428 0.33995h-1.8436q-0.0784 0-0.0784 0.07845v3.2557q0 0.22227-0.22228 0.22227h-1.399q-0.22228 0-0.22228-0.22227v-8.721q0-0.22228 0.22228-0.22228zm-0.27458 4.1317q0.60145 0 0.96755-0.33995 0.3661-0.35302 0.3661-0.91525 0-0.5753-0.3661-0.92832t-0.96755-0.35302h-1.6474q-0.0784 0-0.0784 0.07845v2.3796q0 0.07845 0.0784 0.07845z"/>
   <path d="m-131.98-3.1059q-0.22228 0-0.22228-0.22227v-8.7079q0-0.22228 0.22228-0.22228h1.3467q0.16998 0 0.2615 0.14382l3.2688 5.4392q0.0262 0.0523 0.0523 0.039225 0.0392-0.013075 0.0392-0.065375v-5.3346q0-0.22228 0.22228-0.22228h1.3729q0.22228 0 0.22228 0.22228v8.7079q0 0.22227-0.22228 0.22227h-1.3336q-0.1569 0-0.2615-0.1569l-3.2818-5.4915q-0.0262-0.0523-0.0654-0.039225-0.0262 0.013075-0.0262 0.065375l0.0131 5.4q0 0.22227-0.22227 0.22227z"/>
   <path d="m-121.6-3.1059q-0.2092 0-0.24842-0.19612l-2.3012-8.7079q-0.0131-0.02615-0.0131-0.06537 0-0.18305 0.2092-0.18305h1.4906q0.19612 0 0.23535 0.19612l1.229 5.2169q0.0131 0.0523 0.0523 0.0523t0.0523-0.0523l1.1768-5.2169q0.0392-0.19612 0.23535-0.19612h1.4775q0.2092 0 0.24842 0.19612l1.2814 5.2169q0.0131 0.0523 0.0392 0.0523 0.0392 0 0.0523-0.0523l1.1768-5.2169q0.0392-0.19612 0.23535-0.19612h1.4252q0.11767 0 0.1569 0.07845 0.0523 0.06537 0.0262 0.16998l-2.1051 8.7079q-0.0392 0.19612-0.24842 0.19612h-1.4382q-0.2092 0-0.24843-0.19612l-1.3075-5.5569q-0.0131-0.0523-0.0523-0.0523t-0.0523 0.0523l-1.216 5.5569q-0.0392 0.19612-0.23535 0.19612z"/>
  </g>
 </g>
 <path d="m89.854 12.25q0.71821 1.89 0.71821 4.6872 0 2.7216-0.64261 4.536-0.75601 2.4948-2.7594 4.0446-1.9656 1.512-4.536 1.512-2.7594 0-4.3092-2.0412-0.0756-0.1134-0.189-0.0756-0.0756 0-0.0756 0.1512v1.0206q0 0.6426-0.6426 0.6426h-4.0446q-0.6426 0-0.6426-0.6426v-25.175q0-0.6426 0.6426-0.6426h4.0446q0.6426 0 0.6426 0.6426v7.7869q0 0.1512 0.0756 0.189 0.1134 0.0378 0.189-0.0756 1.512-1.8522 4.3092-1.8522 2.5704 0 4.4604 1.4364 1.9278 1.4364 2.7594 3.8556zm-5.67 8.5051q0.7938-1.4742 0.7938-3.7044 0-2.457-0.9072-3.969-0.90721-1.4364-2.646-1.4364-1.5876 0-2.5326 1.4742-0.79381 1.3986-0.79381 3.8934 0 2.3436 0.75601 3.7422 0.90721 1.6254 2.5704 1.6254 1.8522 0 2.7594-1.6254z" fill="#282828"/>
 <path d="m161.03 0.91q0-0.6426 0.6426-0.6426h4.0446q0.6426 0 0.6426 0.6426v25.175q0 0.6426-0.6426 0.6426h-4.0446q-0.6426 0-0.6426-0.6426v-1.0206q0-0.1512-0.11341-0.1512-0.0756-0.0378-0.1512 0.0756-1.5498 2.0412-4.3092 2.0412-2.5704 0-4.5738-1.512-1.9656-1.5498-2.7216-4.0446-0.64261-1.8144-0.64261-4.536 0-2.7972 0.71821-4.6872 0.83161-2.4192 2.7216-3.8556 1.9278-1.4364 4.4982-1.4364 2.7972 0 4.3092 1.8522 0.0756 0.1134 0.1512 0.0756 0.11341-0.0378 0.11341-0.189zm-0.79381 19.845q0.756-1.3986 0.756-3.7422 0-2.4948-0.7938-3.8934-0.94501-1.4742-2.5326-1.4742-1.7388 0-2.646 1.4364-0.90721 1.512-0.90721 3.969 0 2.2302 0.79381 3.7044 0.90721 1.6254 2.7594 1.6254 1.6632 0 2.5704-1.6254z" fill="#282828"/>
</svg>
