<?xml version="1.0" encoding="UTF-8" standalone="no"?>
<svg
   xmlns:dc="http://purl.org/dc/elements/1.1/"
   xmlns:cc="http://creativecommons.org/ns#"
   xmlns:rdf="http://www.w3.org/1999/02/22-rdf-syntax-ns#"
   xmlns:svg="http://www.w3.org/2000/svg"
   xmlns="http://www.w3.org/2000/svg"
   id="svg1092"
   version="1.1"
   viewBox="0 0 213.78496 33.982811"
   height="33.982811mm"
   width="213.78496mm">
  <defs
     id="defs1086" />
  <metadata
     id="metadata1089">
    <rdf:RDF>
      <cc:Work
         rdf:about="">
        <dc:format>image/svg+xml</dc:format>
        <dc:type
           rdf:resource="http://purl.org/dc/dcmitype/StillImage" />
        <dc:title></dc:title>
      </cc:Work>
    </rdf:RDF>
  </metadata>
  <g
     transform="translate(-4.6189214,-115.30651)"
     id="layer1">
    <path
       d="m 17.920302,141.76704 q -0.642606,0 -0.642606,-0.64259 v -25.17503 q 0,-0.64261 0.642606,-0.64261 h 4.044635 q 0.642607,0 0.642607,0.64261 v 10.31949 q 0,0.1512 0.0756,0.189 0.1134,0.0378 0.189002,-0.0756 l 8.618478,-10.69749 q 0.264602,-0.37801 0.793808,-0.37801 h 4.573839 q 0.264604,0 0.415806,0.11341 0.151199,0.0756 0.151199,0.2646 0,0.15119 -0.189,0.4158 l -8.240476,10.5085 q -0.1134,0.1134 0,0.3024 l 8.731878,14.09952 q 0.113404,0.15121 0.113404,0.34021 0,0.41579 -0.529207,0.41579 h -4.573841 q -0.491403,0 -0.756005,-0.41579 l -6.61506,-10.7353 q -0.0378,-0.1134 -0.151202,-0.1134 -0.1134,0 -0.189002,0.1134 l -2.30582,2.94843 q -0.113401,0.1512 -0.113401,0.2646 v 7.29547 q 0,0.64259 -0.642607,0.64259 z"
       style="font-style:normal;font-variant:normal;font-weight:bold;font-stretch:normal;font-size:37.80033875px;line-height:1em;font-family:Barlow;-inkscape-font-specification:'Barlow Bold';text-align:end;letter-spacing:0px;word-spacing:0px;text-anchor:end;display:inline;fill:#282828;fill-opacity:1;stroke:none;stroke-width:0.70875627"
       id="path1083" />
    <path
       d="m 47.623765,137.57121 q 2.49483,-0.1134 3.81784,-1.73881 0.2268,-0.2646 0.4914,-0.2646 0.2268,0 0.41581,0.189 l 2.15461,2.07902 q 0.2268,0.2268 0.2268,0.4536 0,0.2646 -0.1512,0.4536 -1.24741,1.54982 -3.21303,2.45703 -1.92781,0.8694 -4.23363,0.8694 -3.47763,0 -5.78346,-1.77661 -2.268015,-1.77662 -3.061823,-4.87625 -0.453602,-1.66321 -0.453602,-3.51543 0,-2.19242 0.415803,-3.70443 0.756005,-2.79723 3.024022,-4.49824 2.30582,-1.70102 5.44325,-1.70102 3.70444,0 5.85906,2.19242 2.19242,2.19242 2.83502,6.16146 0.1512,1.24741 0.2268,2.75942 0,0.64261 -0.6426,0.64261 h -11.6047 q -0.22681,0 -0.22681,0.2268 0.1134,0.79381 0.2646,1.17181 0.37801,1.17181 1.47422,1.81442 1.13401,0.6048 2.72162,0.6048 z m -0.98281,-10.96209 q -1.20961,0 -2.04121,0.6048 -0.79381,0.56701 -1.09621,1.62542 -0.18901,0.7182 -0.22681,0.945 -0.0378,0.22681 0.189,0.22681 h 6.42606 q 0.189,0 0.189,-0.15121 0,-0.4158 -0.1512,-0.8694 -0.3402,-1.09621 -1.17181,-1.73882 -0.8316,-0.6426 -2.11682,-0.6426 z"
       style="font-style:normal;font-variant:normal;font-weight:bold;font-stretch:normal;font-size:37.80033875px;line-height:1em;font-family:Barlow;-inkscape-font-specification:'Barlow Bold';text-align:end;letter-spacing:0px;word-spacing:0px;text-anchor:end;display:inline;fill:#282828;fill-opacity:1;stroke:none;stroke-width:0.70875627"
       id="path1085" />
    <path
       d="m 57.774335,149.28932 q -0.2646,0 -0.2646,-0.64261 v -3.09962 q 0,-0.64261 0.2268,-0.64261 h 0.22681 q 2.34362,0 3.32642,-0.60481 1.02061,-0.567 1.47422,-2.38142 0.0756,-0.189 0,-0.3024 l -6.08586,-18.55997 q -0.0378,-0.0756 -0.0378,-0.2268 0,-0.2268 0.15121,-0.3402 0.1512,-0.1512 0.4158,-0.1512 h 4.34704 q 0.5292,0 0.7182,0.5292 l 3.09963,11.2645 q 0.0378,0.1512 0.1512,0.1512 0.1134,0 0.1512,-0.1512 l 2.94844,-11.2267 q 0.1134,-0.567 0.7182,-0.567 h 4.34704 q 0.34021,0 0.4914,0.2268 0.15121,0.189 0.0378,0.4914 l -6.46386,19.42938 q -0.94501,2.75942 -1.92782,4.12023 -0.9828,1.39861 -2.75942,2.04122 -1.77662,0.64261 -5.02745,0.64261 z"
       style="font-style:normal;font-variant:normal;font-weight:bold;font-stretch:normal;font-size:37.80033875px;line-height:1em;font-family:Barlow;-inkscape-font-specification:'Barlow Bold';text-align:end;letter-spacing:0px;word-spacing:0px;text-anchor:end;display:inline;fill:#282828;fill-opacity:1;stroke:none;stroke-width:0.70875627"
       id="path1087" />
    <path
       d="m 106.66908,142.06945 q -3.21303,0 -5.48105,-1.66321 -2.268025,-1.66322 -3.099625,-4.53604 -0.52921,-1.77662 -0.52921,-3.85564 0,-2.30582 0.56701,-4.00683 0.86941,-2.79723 3.099615,-4.38484 2.26803,-1.58762 5.48106,-1.58762 3.09963,0 5.29205,1.58762 2.23022,1.58761 3.09963,4.34704 0.567,1.73881 0.567,3.96903 0,1.96562 -0.4914,3.81784 -0.86941,2.94842 -3.13743,4.64944 -2.23022,1.66321 -5.36765,1.66321 z m 0,-4.57384 q 1.20961,0 2.07902,-0.756 0.86941,-0.75601 1.24741,-2.07902 0.3024,-1.02061 0.3024,-2.64603 0,-1.58761 -0.3024,-2.68382 -0.378,-1.28521 -1.24741,-2.00342 -0.86941,-0.7182 -2.15462,-0.7182 -1.24742,0 -2.11682,0.7182 -0.86941,0.71821 -1.24741,2.00342 -0.3024,1.09621 -0.3024,2.68382 0,1.54982 0.3024,2.64603 0.378,1.32301 1.24741,2.07902 0.90721,0.756 2.19242,0.756 z"
       style="font-style:normal;font-variant:normal;font-weight:bold;font-stretch:normal;font-size:37.80033875px;line-height:1em;font-family:Barlow;-inkscape-font-specification:'Barlow Bold';text-align:end;letter-spacing:0px;word-spacing:0px;text-anchor:end;display:inline;fill:#282828;fill-opacity:1;stroke:none;stroke-width:0.70875627"
       id="path1091" />
    <path
       d="m 126.87868,122.03527 q 2.45702,0 4.38484,0.86941 1.92782,0.83161 2.98623,2.30582 1.09621,1.47422 1.09621,3.28863 v 12.62532 q 0,0.64259 -0.64261,0.64259 h -4.04464 q -0.6426,0 -0.6426,-0.64259 v -0.90721 q 0,-0.1512 -0.0756,-0.1512 -0.0756,-0.0378 -0.189,0.0756 -1.73882,1.92781 -5.17865,1.92781 -2.91063,0 -4.68724,-1.43641 -1.77662,-1.43641 -1.77662,-4.23364 0,-2.91062 2.04122,-4.49824 2.04122,-1.62541 5.82125,-1.62541 h 3.81784 q 0.2268,0 0.2268,-0.2268 v -0.79381 q 0,-1.24741 -0.79381,-1.92782 -0.75601,-0.7182 -2.23022,-0.7182 -1.13401,0 -1.89002,0.378 -0.7182,0.378 -0.9828,1.05841 -0.22681,0.5292 -0.75601,0.4914 l -4.19584,-0.5292 q -0.3024,-0.0378 -0.4914,-0.1512 -0.1512,-0.1512 -0.1134,-0.37801 0.189,-1.54981 1.28521,-2.79722 1.13401,-1.24741 2.94842,-1.92782 1.85222,-0.71821 4.08244,-0.71821 z m -0.75601,16.06515 q 1.62542,0 2.75943,-0.86941 1.13401,-0.86941 1.13401,-2.23022 v -1.32301 q 0,-0.2268 -0.2268,-0.2268 h -2.68383 q -1.70101,0 -2.68382,0.6426 -0.98281,0.64261 -0.98281,1.81442 0,1.02061 0.71821,1.62541 0.756,0.56701 1.96561,0.56701 z"
       style="font-style:normal;font-variant:normal;font-weight:bold;font-stretch:normal;font-size:37.80033875px;line-height:1em;font-family:Barlow;-inkscape-font-specification:'Barlow Bold';text-align:end;letter-spacing:0px;word-spacing:0px;text-anchor:end;display:inline;fill:#282828;fill-opacity:1;stroke:none;stroke-width:0.70875627"
       id="path1093" />
    <path
       d="m 148.70247,122.07308 q 1.20961,0 2.00341,0.4536 0.45361,0.2268 0.34021,0.79381 l -0.71821,3.96903 q -0.0378,0.3402 -0.2268,0.41581 -0.1512,0.0756 -0.52921,0 -0.6048,-0.15121 -1.09621,-0.15121 -0.2646,0 -0.8694,0.0756 -1.36082,0.11341 -2.30582,1.02061 -0.94501,0.86941 -0.94501,2.34363 v 10.13049 q 0,0.64259 -0.64261,0.64259 h -4.04463 q -0.64261,0 -0.64261,-0.64259 v -18.14417 q 0,-0.6426 0.64261,-0.6426 h 4.04463 q 0.64261,0 0.64261,0.6426 v 1.17181 q 0,0.15121 0.0756,0.18901 0.0756,0.0378 0.189,-0.0756 1.51201,-2.19241 4.08244,-2.19241 z"
       style="font-style:normal;font-variant:normal;font-weight:bold;font-stretch:normal;font-size:37.80033875px;line-height:1em;font-family:Barlow;-inkscape-font-specification:'Barlow Bold';text-align:end;letter-spacing:0px;word-spacing:0px;text-anchor:end;display:inline;fill:#282828;fill-opacity:1;stroke:none;stroke-width:0.70875627"
       id="path1095" />
    <path
       d="m 182.4587,142.03165 q -2.53262,0 -4.42264,-0.7182 -1.89002,-0.71821 -2.91063,-2.00342 -1.02061,-1.28521 -1.02061,-2.91063 v -0.189 q 0,-0.6426 0.64261,-0.6426 h 3.81783 q 0.64261,0 0.64261,0.2268 v 0.2646 q 0,0.83161 0.90721,1.43641 0.90721,0.56701 2.30582,0.56701 1.28521,0 2.07902,-0.49141 0.7938,-0.4914 0.7938,-1.28521 0,-0.6804 -0.6804,-1.02061 -0.68041,-0.3402 -2.23022,-0.7182 -1.85222,-0.49141 -2.75943,-0.86941 -2.45702,-0.83161 -3.89343,-2.04122 -1.43641,-1.20961 -1.43641,-3.47763 0,-2.79723 2.19241,-4.42264 2.19242,-1.66321 5.74566,-1.66321 2.41922,0 4.23363,0.7938 1.85222,0.75601 2.83503,2.15462 1.02061,1.39861 1.02061,3.17523 0,0.189 -0.189,0.3402 -0.1512,0.1134 -0.45361,0.1134 h -3.70443 q -0.64261,0 -0.64261,-0.2268 v -0.2268 q 0,-0.83161 -0.8316,-1.39861 -0.83161,-0.56701 -2.23022,-0.56701 -1.24741,0 -2.07902,0.45361 -0.79381,0.4536 -0.79381,1.24741 0,0.756 0.75601,1.13401 0.7938,0.378 2.57042,0.7938 1.09621,0.22681 2.11682,0.56701 2.72162,0.79381 4.27144,2.04122 1.54981,1.24741 1.54981,3.62883 0,2.79723 -2.23022,4.38484 -2.23022,1.54981 -5.97245,1.54981 z"
       style="font-style:normal;font-variant:normal;font-weight:bold;font-stretch:normal;font-size:37.80033875px;line-height:1em;font-family:Barlow;-inkscape-font-specification:'Barlow Bold';text-align:end;letter-spacing:0px;word-spacing:0px;text-anchor:end;display:inline;fill:#282828;fill-opacity:1;stroke:none;stroke-width:0.70875627"
       id="path1099" />
    <text
       xml:space="preserve"
       style="font-style:normal;font-variant:normal;font-weight:normal;font-stretch:normal;font-size:12.55561924px;line-height:1em;font-family:Garuda;-inkscape-font-specification:Garuda;letter-spacing:0px;word-spacing:0px;display:inline;fill:#8ec07c;fill-opacity:1;stroke:none;stroke-width:0.23541784"
       x="192.60876"
       y="142.78397"
       id="text1117"
       transform="scale(1.0060321,0.99400407)"><tspan
         id="tspan1115"
         x="192.60876"
         y="142.78397"
         style="font-style:normal;font-variant:normal;font-weight:bold;font-stretch:normal;font-size:13.05277824px;font-family:Barlow;-inkscape-font-specification:'Barlow Bold';fill:#8ec07c;fill-opacity:1;stroke-width:0.23541784">com</tspan></text>
    <circle
       style="display:inline;opacity:1;fill:#8ec07c;fill-opacity:1;stroke:none;stroke-width:2.30152678;stroke-linecap:round;stroke-linejoin:round;stroke-miterlimit:14.10000038;stroke-dasharray:none;stroke-dashoffset:28.34645653;stroke-opacity:1;paint-order:normal"
       id="circle1119"
       cx="191.99731"
       cy="140.73572"
       r="1.1786624" />
    <text
       xml:space="preserve"
       style="font-style:normal;font-variant:normal;font-weight:normal;font-stretch:normal;font-size:13.0749855px;line-height:1em;font-family:Garuda;-inkscape-font-specification:Garuda;letter-spacing:0px;word-spacing:0px;display:inline;fill:#fabd2f;fill-opacity:1;stroke:none;stroke-width:0.24515596"
       x="-143.96536"
       y="13.737176"
       id="text1123"
       transform="matrix(0,-0.98975729,1.0103487,0,0,0)"><tspan
         id="tspan1121"
         x="-143.96536"
         y="13.737176"
         style="font-style:normal;font-variant:normal;font-weight:bold;font-stretch:normal;font-family:Barlow;-inkscape-font-specification:'Barlow Bold';fill:#fabd2f;stroke-width:0.24515596">PNW</tspan></text>
    <path
       d="m 94.208385,127.28921 q 0.7182,1.89002 0.7182,4.68725 0,2.72162 -0.6426,4.53604 -0.75601,2.49482 -2.75943,4.04463 -1.96561,1.51202 -4.53604,1.51202 -2.75942,0 -4.30924,-2.04122 -0.0756,-0.1134 -0.189,-0.0756 -0.0756,0 -0.0756,0.1512 v 1.02061 q 0,0.6426 -0.64261,0.6426 h -4.04464 q -0.6426,0 -0.6426,-0.6426 v -25.17503 q 1e-5,-0.6426 0.6426,-0.6426 h 4.04465 q 0.6426,0 0.6426,0.6426 v 7.78687 q 0,0.1512 0.0756,0.189 0.1134,0.0378 0.189,-0.0756 1.51202,-1.85221 4.30924,-1.85221 2.57043,0 4.46044,1.43641 1.92782,1.43641 2.75943,3.85563 z m -5.67005,8.50508 q 0.7938,-1.47421 0.7938,-3.70443 0,-2.45702 -0.9072,-3.96904 -0.90722,-1.43641 -2.64603,-1.43641 -1.58761,0 -2.53262,1.47421 -0.79382,1.39861 -0.79382,3.89344 0,2.34362 0.75601,3.74223 0.90722,1.62542 2.57043,1.62542 1.85221,0 2.75943,-1.62542 z"
       style="font-style:normal;font-variant:normal;font-weight:bold;font-stretch:normal;font-size:37.80033875px;line-height:1em;font-family:Barlow;-inkscape-font-specification:'Barlow Bold';text-align:end;letter-spacing:0px;word-spacing:0px;text-anchor:end;display:inline;fill:#282828;fill-opacity:1;stroke:none;stroke-width:0.70875627"
       id="path1878" />
    <path
       d="m 165.38649,115.94911 q 0,-0.6426 0.6426,-0.6426 h 4.04464 q 0.6426,0 0.6426,0.6426 v 25.17503 q 0,0.6426 -0.6426,0.6426 h -4.04464 q -0.6426,0 -0.6426,-0.6426 v -1.02061 q 0,-0.1512 -0.11341,-0.1512 -0.0756,-0.0378 -0.1512,0.0756 -1.54981,2.04122 -4.30924,2.04122 -2.57042,0 -4.57384,-1.51202 -1.96561,-1.54981 -2.72162,-4.04463 -0.64261,-1.81442 -0.64261,-4.53604 0,-2.79723 0.71821,-4.68725 0.83161,-2.41922 2.72162,-3.85563 1.92782,-1.43641 4.49824,-1.43641 2.79723,0 4.30924,1.85221 0.0756,0.1134 0.1512,0.0756 0.11341,-0.0378 0.11341,-0.189 z m -0.79381,19.84518 q 0.756,-1.39861 0.756,-3.74223 0,-2.49483 -0.7938,-3.89344 -0.94501,-1.47421 -2.53263,-1.47421 -1.73881,0 -2.64602,1.43641 -0.90721,1.51202 -0.90721,3.96904 0,2.23022 0.79381,3.70443 0.90721,1.62542 2.75942,1.62542 1.66322,0 2.57043,-1.62542 z"
       style="font-style:normal;font-variant:normal;font-weight:bold;font-stretch:normal;font-size:37.80033875px;line-height:1em;font-family:Barlow;-inkscape-font-specification:'Barlow Bold';text-align:end;letter-spacing:0px;word-spacing:0px;text-anchor:end;display:inline;fill:#282828;fill-opacity:1;stroke:none;stroke-width:0.70875627"
       id="path1886" />
  </g>
</svg>
